<svg xmlns="http://www.w3.org/2000/svg" viewBox="0 0 64 64"><g id="Layer_39" data-name="Layer 39"><path d="M45.35,53.5H18.65A6.5,6.5,0,0,1,12.15,47V31.14a6.49,6.49,0,0,1,2.08-4.75L27.62,12.26a6.5,6.5,0,0,1,8.85-.06c.07.06,13.25,14.12,13.32,14.2a6.48,6.48,0,0,1,2.06,4.73V47A6.5,6.5,0,0,1,45.35,53.5ZM29.76,14.37,16.37,28.49a3.51,3.51,0,0,0-1.22,2.65V47a3.49,3.49,0,0,0,3.5,3.48h26.7A3.49,3.49,0,0,0,48.85,47V31.13a3.48,3.48,0,0,0-1.21-2.64L34.4,14.38A3.49,3.49,0,0,0,29.76,14.37ZM15.28,27.46h0Z" fill="#606060" id="id_101"></path></g></svg>